/* XPM */
static char *life_11664130493[] = {
/* columns rows colors chars-per-pixel */
"48 16 12 1 ",
"  c None",
". c black",
"X c #900000",
"o c #B46C48",
"O c #FCFC00",
"+ c #242490",
"@ c #4848B4",
"# c #6C6CD8",
"$ c #909090",
"% c #FCB490",
"& c #9090FC",
"* c gray99",
/* pixels */
"................                                ",
"****************  OOOO. OOO.  OO. OO. OO.  OOO. ",
"**+@@##@@******* OO....OO.OO. OOO OO. OO. OO.OO.",
"***++oo##@@**+**  OOO  OO.OO. OOOOOO. OO. OO....",
"****+o%o#&#@@+**  ..OO.OO.OO. OO.OOO. OO. OO.   ",
"****&o%%&&##@+**    OO.OO.OO. OO..OO. OO. OO.OO.",
"**&#@@#@@####@** OOOO.  OOO.  OO. OO. OO.  OOO. ",
"*&+++@#&**##@&+* ....   ...   ... ... ...  ...  ",
"*++++@@*..*#.*+*                                ",
"++++++@*..*#.*+*                   **.          ",
"****++@*..*+$*+*      *.  *.      ***.          ",
"**&+++o%**%..o**       *.*.       .**.          ",
"*&+++.o%%%%%%o**        *.         **.          ",
"*&++++.oo%%%o***       *.*.        **.          ",
"*&**&++oXXXX****      *.  *.       **.          ",
"................      .   ..       ...          "
};
