/* XPM */
static char *_1663187462[] = {
/* columns rows colors chars-per-pixel */
"32 32 11 1 ",
"  c None",
". c black",
"X c #484848",
"o c #900000",
"O c #FC0000",
"+ c #B46C48",
"@ c #242490",
"# c #909090",
"$ c #B4B4B4",
"% c #FCB490",
"& c gray99",
/* pixels */
"                                ",
"                                ",
"   &&&&&&&&&&&&&&&&&&&&&&&&&&   ",
"  &$$$$$$$$$$$$$$$$$$$$$$$$$$&  ",
" X$##########################$X ",
" X$###....................###$X ",
" X$##......................##$X ",
" X$#$...&&&&&&&&&&&&&&&&...$#$X ",
" X##$...&&&&&&&&&&&&&&&&...$##X ",
" X##$...&&&&&&++++&&&&&&...$##X ",
" X##$...&&&&&+%%%%+&&&&&...$##X ",
" X##$...&&&&+%%%%%%+&&&&...$##X ",
" X##$...&&&&+..%%..+&&&&...$##X ",
" X##$...oooo+..%%..+oooo...$##X ",
" X##$...&oooooooooooooo&...$##X ",
" X##$...&&ooooo++ooooo&&...$##X ",
" X##$...&oooo++&&++oooo&...$##X ",
" X##$...@@@@@@++++@@@@@@...$##X ",
" X##$...@@@@@@@@@@@@@@@@...$##X ",
" X##$...@@@@@@@@@@@@@@@@...$##X ",
" X##$...@@@@@@@@@@@@@@@@...$##X ",
" X##$......................$##X ",
" X##$&....................&$##X ",
" X###$&&&&&&&&&&&&&&&&&&&&$###X ",
" X####OO$$$$$$$$$$$$$$$$$$####X ",
"  .##########################.  ",
"   ..........................   ",
"       .################.       ",
"       ....XXXX##XXXX...        ",
"          .XX##$$##XX.          ",
"    $$$$$$$$$$$$$$$$$$$$$$$$    ",
"    ........................    "
};
