/* XPM */
static char *_1663187462[] = {
/* columns rows colors chars-per-pixel */
"32 32 14 1 ",
"  c None",
". c black",
"X c #484848",
"o c #900000",
"O c #FC0000",
"+ c #B46C48",
"@ c #242490",
"# c #4848B4",
"$ c #6C6CD8",
"% c #909090",
"& c #B4B4B4",
"* c #FCB490",
"= c #9090FC",
"- c gray99",
/* pixels */
"                                ",
"                                ",
"   --------------------------   ",
"  -&&&&&&&&&&&&&&&&&&&&&&&&&&-  ",
" X&%%%%%%%%%%%%%%%%%%%%%%%%%%&X ",
" X&%%%....................%%%&X ",
" X&%%......................%%&X ",
" X&%&...----------------...&%&X ",
" X%%&...--@##$$##-------...&%%X ",
" X%%&...---@@++$$##--@--...&%%X ",
" X%%&...----@+*+$=$##@--...&%%X ",
" X%%&...----@+**==$$#@--...&%%X ",
" X%%&...--=###$##$$$$#--...&%%X ",
" X%%&...-=@@@#$=--$$#=@-...&%%X ",
" X%%&...-@@@@##-..-$.-@-...&%%X ",
" X%%&...@@@@@@#-..-$.-@-...&%%X ",
" X%%&...----@@#-..-@%-@-...&%%X ",
" X%%&...--=@@@+*--*..+--...&%%X ",
" X%%&...-=@@@.+******+--...&%%X ",
" X%%&...-=@@@@.++***+---...&%%X ",
" X%%&...-=--=@@+oooo----...&%%X ",
" X%%&......................&%%X ",
" X%%&-....................-&%%X ",
" X%%%&--------------------&%%%X ",
" X%%%%OO&&&&&&&&&&&&&&&&&&%%%%X ",
"  .%%%%%%%%%%%%%%%%%%%%%%%%%%.  ",
"   ..........................   ",
"       .%%%%%%%%%%%%%%%%.       ",
"       ....XXXX%%XXXX...        ",
"          .XX%%&&%%XX.          ",
"    &&&&&&&&&&&&&&&&&&&&&&&&    ",
"    ........................    "
};
