/* XPM */
static char *_1663187463[] = {
/* columns rows colors chars-per-pixel */
"32 32 7 1 ",
"  c None",
". c black",
"X c #484848",
"o c #FC0000",
"O c #909090",
"+ c #B4B4B4",
"@ c gray99",
/* pixels */
"                                ",
"                                ",
"                                ",
"                                ",
"                                ",
"                                ",
"                                ",
"                                ",
"                                ",
"                                ",
"                                ",
"                                ",
"                                ",
"                                ",
"                                ",
"                                ",
"        O.  +@             .  @.",
"   X   OO.  .XO    X .O   .. OO.",
"   .X .OXX. .XXO XX. .OO ...OO. ",
"O  ..X..XXX...XXO... .OOO..XOX. ",
"OX.....XXXXX..XXXXX...OOOOX.XX.X",
"XO.....XXXXXX.XXXXXXX..OOOX+..OX",
".OX.X...XXXXXX.........O+O.+OOOX",
"XOOOX..........@@@@.@@..XX.+OOOX",
"XOOO...XX.....@+++.+++@..X.@OOOX",
"XOOOX...X@@@@.OOOOOOOOOO...@OOOX",
"XOOOX....++++.O.......OO.@@OOOOX",
"XOO.+@...OOO...XOOOOOO...OOOOOX ",
" X.OO+@@@....XXOOXXXX. ..OOOOO. ",
" XOOOOoo+.XXXOO++OOXX.........  ",
"  .OOOOOO.XO++++++++++OOO+++    ",
"   .........................    "
};
