/* XPM */
static char *__left1663878485[] = {
/* columns rows colors chars-per-pixel */
"32 32 15 1 ",
"  c None",
". c black",
"X c #480000",
"o c #484848",
"O c #900000",
"+ c #FC0000",
"@ c #B46C48",
"# c #242490",
"$ c #4848B4",
"% c #6C6CD8",
"& c #909090",
"* c #B4B4B4",
"= c #FCB490",
"- c #9090FC",
"; c gray99",
/* pixels */
" ##$%%%-%$$==@####              ",
" #$%%---$===@###                ",
" $%%-----%%@@#$$$               ",
" $%%-%%%%-%%$$$#$$$$            ",
"$%%-%-;;%%%%%$$##$$$$$          ",
"-%%%-;;;-%%%%$$##$$$####        ",
".%%$.;;;-%%%$$$##$####          ",
".%$..;;;-%%%$$######            ",
"..-..;;;%%$$$$####              ",
"&.;..;;%$$$$$###$               ",
"&.&;;;-$;;@$#####$$$$$          ",
"...=;;;;===@#######====@        ",
"  =========@##;;;==&@@@=@$      ",
"  O@@=====@##;&o;;o*;OO=@       ",
"   OO@@@@@OOO*;;;;*&;@=@        ",
"    ++++ooooo*;;;;*&*O@$  ..    ",
"   ++++&oo&oo&****&o*###$+++.   ",
"  .O++ &&&o& @&***&######;;++.  ",
"  X.O+  &oo  =@@@@#$$###&%o;=.  ",
"  O.OO     ##@==@$$$$. %%$.;=+. ",
"  OX.O    ####@@@$$$$$%$$.==@+. ",
"  OX.O@O==##...$$$$ $$$.+==@@+. ",
"   OX.@O===.            .+@@++. ",
"   OX.@OO=@@.            +++++. ",
"   OX.OOO=@@.            ==++=. ",
"    OX.OO@@.            O@===.  ",
"    OX.OO..            OO@@@+.  ",
"    OX.OO.            OO++++.   ",
"     X.O.          OOOOO+++.    ",
"     X..      OOOOOOOOOO++.     ",
"                OOOOOOOO..      ",
"             OOOOOOOOO          "
};
