/* XPM */
static char *__right1663878485[] = {
/* columns rows colors chars-per-pixel */
"32 32 4 1 ",
"  c None",
". c #242490",
"X c #4848B4",
"o c #6C6CD8",
/* pixels */
"                                ",
"                                ",
"                                ",
"                                ",
"                                ",
"                                ",
"                                ",
"                                ",
"                                ",
"                                ",
"                                ",
"                                ",
"                                ",
"                                ",
"                                ",
"                                ",
"                                ",
"                                ",
"                                ",
"                                ",
"                                ",
"                                ",
"                                ",
"                                ",
"                                ",
"                                ",
"                                ",
"                                ",
"                                ",
"           XXXXXXXXXXXX         ",
"         .....XXXXXXoooXXX   .  ",
"           .........XoooooXX .  "
};
