/* XPM */
static char *__right1663878486[] = {
/* columns rows colors chars-per-pixel */
"32 32 15 1 ",
"  c None",
". c black",
"X c #480000",
"o c #484848",
"O c #900000",
"+ c #FC0000",
"@ c #B46C48",
"# c #242490",
"$ c #4848B4",
"% c #6C6CD8",
"& c #909090",
"* c #B4B4B4",
"= c #FCB490",
"- c #9090FC",
"; c gray99",
/* pixels */
"              ####@==$$%-%%%$## ",
"                ###@===$---%%$# ",
"               $$$#@@%%-----%%$ ",
"            $$$$#$$$%%-%%%%-%%$ ",
"          $$$$$##$$%%%%%;;-%-%%$",
"        ####$$$##$$%%%%-;;;-%%%-",
"          ####$##$$$%%%-;;;.$%%.",
"            ######$$%%%-;;;..$%.",
"              ####$$$$%%;;;..-..",
"               $###$$$$$%;;..;.&",
"          $$$$$#####$@;;$-;;;&.&",
"        @====#######@===;;;;=...",
"      $@=@@@&==;;;+++=========  ",
"       @=OO;*o;;o&;@++++===@@O  ",
"        @=@;&*;;;;*OO@++++@OO   ",
"        $@O*&*;;;;*ooooOOOO     ",
"     $$$###*o&****&oo&ooOOOO    ",
"      #######&***&@ &o&&OOOOO   ",
"        ###$$#@@@@=  oo& OOO+.  ",
"    OXO   .$$$$@==@      OOO+.  ",
"   O.OO==##.$$$%%%       OO++.  ",
"   O.OO##..#.$$$$$%      ;+++.  ",
"  OX.OO..=#.      $% ;  ;+++.   ",
"  O.OOO@@@         $%;;+;+++.   ",
"  X.OOO...         #;;;+=++.    ",
"  ..OOO.           ====+=++.    ",
"  ..OOO.X           @=+++=.     ",
"   .OOOOX           .++++=.     ",
"    .OOOOXX         .++++.      ",
"     ..OOOXXX        .++.       ",
"       ...XXXXXXX     ..        ",
"          XXXXXXXXXXX           "
};
