/* XPM */
static char *__right1663878487[] = {
/* columns rows colors chars-per-pixel */
"32 32 5 1 ",
"  c None",
". c #242490",
"X c #4848B4",
"o c #6C6CD8",
"O c #FCB490",
/* pixels */
"                                ",
"                                ",
"                                ",
"                                ",
"                                ",
"                                ",
"                                ",
"                                ",
"                                ",
"                                ",
"                                ",
"                                ",
"                                ",
"                                ",
"                                ",
"                                ",
"                                ",
"                                ",
"                                ",
"                                ",
"                                ",
"                                ",
"                                ",
"                                ",
"                                ",
"                                ",
"                                ",
"                                ",
"                XXXXX           ",
"            XXXXXXXooXXX        ",
"          ....XXXXX..oooXX    . ",
"            .....XX.O.ooooXX .. "
};
