/* XPM */
static char *floor1663187026[] = {
/* columns rows colors chars-per-pixel */
"32 32 2 1 ",
"  c #6C2400",
". c #D86C00",
/* pixels */
"        ........        ........",
"        ........        ........",
"        ........        ........",
"        ........        ........",
"        ........        ........",
"        ........        ........",
"        ........        ........",
"        ........        ........",
"........        ........        ",
"........        ........        ",
"........        ........        ",
"........        ........        ",
"........        ........        ",
"........        ........        ",
"........        ........        ",
"........        ........        ",
"        ........        ........",
"        ........        ........",
"        ........        ........",
"        ........        ........",
"        ........        ........",
"        ........        ........",
"        ........        ........",
"        ........        ........",
"........        ........        ",
"........        ........        ",
"........        ........        ",
"........        ........        ",
"........        ........        ",
"........        ........        ",
"........        ........        ",
"........        ........        "
};
