/* XPM */
static char *__right1663275954[] = {
/* columns rows colors chars-per-pixel */
"32 32 7 1 ",
"  c None",
". c #B46C48",
"X c #242490",
"o c #4848B4",
"O c #6C6CD8",
"+ c #FCB490",
"@ c #9090FC",
/* pixels */
"                                ",
"                                ",
"                                ",
"                                ",
"                                ",
"                                ",
"                                ",
"                                ",
"                                ",
"                                ",
"                                ",
"                                ",
"                                ",
"                                ",
"                                ",
"                                ",
"                                ",
"                                ",
"                                ",
"                                ",
"                                ",
"                                ",
"                                ",
"                                ",
"                                ",
"                                ",
"        oooooo                  ",
"      ooOOOOOOooo               ",
"     oXXX..OOOOOOoo  XX         ",
"    XXXXX++.OO@OOOOOXXX         ",
"       XX+++.OO@@OOOOoX         ",
"        X++++O@@@@OOOOX         "
};
