/* XPM */
static char *end_01664130493[] = {
/* columns rows colors chars-per-pixel */
"32 40 15 1 ",
"  c None",
". c black",
"X c #480000",
"o c #484848",
"O c #900000",
"+ c #FC0000",
"@ c #B46C48",
"# c #242490",
"$ c #4848B4",
"% c #6C6CD8",
"& c #909090",
"* c #B4B4B4",
"= c #FCB490",
"- c #9090FC",
"; c gray99",
/* pixels */
"                                ",
"                                ",
"                                ",
"                                ",
"                                ",
"               ##               ",
"             ######             ",
"            ##$$$$##            ",
"           #$$%%%%$$#           ",
"        #@@$%%%--%%%$@@#        ",
"        #==@@%----%@@==#        ",
"       ##====%----%====##       ",
"       #$=@@%%%--%%%@@=$#       ",
"      ##$@$$$%%%%%%$$$@$##      ",
"      ##$$$%$%%%%%%$%$$$##      ",
"      ##$$-;-$%%%%$-;-$$##      ",
"      ##$$;;;%$%%$%;;;$$##      ",
"      # #-;;;.%$$%.;;;-# #      ",
"      # #-;;;.o%%o.;;;-# #      ",
"        #-;;;.o--o.;;;-#        ",
"        ##-;;.o;;o.;;-##        ",
"        #@==;;;**;;;==@#        ",
"        ##@====..====@##        ",
"        ##O@@======@@O##        ",
"        ## OO@@@@@@OO ##        ",
"        # =@#OOOOOO#@= #        ",
" ;*     ==@#$@@@@@@$ @==     *; ",
"*;;;&;@=@@# $@@===@$  @@=@;&;;;*",
";;&;;;*O  # #-;@=@@#    O*;;;&;;",
"*;oo*o*o    #%-@@@$#    o*o*oo;*",
"o*o*o o     o$-#$$##     o o*o*o",
" ooo        ;$-..$#         ooo ",
"           O*##&+.#             ",
"           +o&&o+.&o            ",
"           ++oo+O.o             ",
"           &;&++.XO&            ",
"          O+&;&+.o&*            ",
"        OO++++&&..OO++          ",
"       OO++++++O..O+++++        ",
"      ..................        "
};
