/* XPM */
static char *end_11664130493[] = {
/* columns rows colors chars-per-pixel */
"49 72 15 1 ",
"  c None",
". c black",
"X c #480000",
"o c #484848",
"O c #900000",
"+ c #FC0000",
"@ c #B46C48",
"# c #242490",
"$ c #4848B4",
"% c #6C6CD8",
"& c #909090",
"* c #B4B4B4",
"= c #FCB490",
"- c #9090FC",
"; c gray99",
/* pixels */
"                                                 ",
"                      ##########                 ",
"                   ###%%%%%%$$$$##               ",
"                ###%%%%%%%$$$###.                ",
"              ##%%%%%%%%$$$####.                 ",
"             #%%%%%%%%%$$##%%##                  ",
"           ##%%%%%%%%%$$#%%$$%#                  ",
"          #%%%%%%%%%%$$#%$$$$$#                  ",
"         #%%%%%%%%%%$$%%$$@@@$#                  ",
"        #%%%%%%%%%%%$%%$@@==@$####               ",
"  ######%%%%%%%%%%%$%%$@@===@$#$$$###            ",
" #%%$$#%%%%%%----%%%%$@@@===@$#$$$$$$##          ",
" #%%$#%%%%%%------%%%%%$@@==@$##$$$$$$$##        ",
" #%%%#%%%%%------%%%%%%%%$$=$$####$$$$$$$#       ",
" #$%#%%%%%%-----%%$$$%%%%%$$$$###########$#      ",
"  #%#%%%%%-----%%$$$$$$%%%$$$$##############     ",
"  ##%%%%%%-----%$$***$$$%%%$$$$#############     ",
"  #%%%%%%%----%%$******$%%%$$$$##############    ",
" #%%%%%%%-----%$$**;;;*$$%%$$$$$#############    ",
" #%%$%%%%-----%$**;;;;;*$%%$$$$$########....#    ",
" #$%*%%%%----%%$*;o.&;;*$%%$$$$$######..    .    ",
"  #%*;$%%%---%$**;...;;;$%$$$$$$####..           ",
"  #%*;*%%%%-%%$*;;o..*;;$$$$$$$$###.             ",
"   #$;;*%%%%%$**;;&..o;;$$$$$$$$##.              ",
"   #$;;;.%%%$$*;;;;...;;$$$$$$$$###              ",
"    #*;;..$$$**;;;;o..;-$$$$$$$$#####            ",
"    #$;;o..***;;;;;;..;-$$$$$$$#######           ",
"     #;;;..*;;;;;;;;*o;%;;%$$$$#######           ",
"      &;;&.*;;;;;;;;;;;;==;$$$$########          ",
"       &oo&;;;;;;;;;;;=====@$$#########          ",
"      ..;;&.o===;;;====..==@$.#########          ",
"      ........========..@==$$.##########         ",
"        .....@======@.O.@=@$.###########         ",
"         O@@@@====..O++@=@***o##########         ",
"     oooo O@@@@====...==@*;;;;&o@@====##         ",
"    o****ooOO@@@@@===@@Oo&;&*;;;o;;o@@=#         ",
"   o**&&&&*o OO@@@@@OOo;;ooo&;;;;&;;o=@#         ",
"  o***&o.**ooO@OOOOO@@o;oo&;;;;**&&;;@.#         ",
"  o****&.&*oo@=@@@@@=o*;;;;;;****&&*;o .         ",
" o&**o**o&&oo@=======o;**;;;;***&&o**o           ",
" o&***o&&oo&o@=======o;;;**;;**&&&o*o            ",
" o&*o**o&o&o O@======o*;;;;;;**&&ooo             ",
" o&&*o&&ooo  #@@@==@@@o**;;;**&oo                ",
"  o&&&&o      #@@@@@@$o*;*;;*&o##                ",
"   oooo    %%$#.$$$$$$$oo*;;oo.##                ",
"          %%$##..##$$$$#.ooo   .#                ",
"          $%$.......#$#..##     .                ",
"          $% .;;&   .$$# .#                      ",
"           $% ..;&   .$$. .#                     ",
"           ;$%.o;&&  .#$.  .                     ",
"          ;o...;;&;.*.##.                        ",
"          *;oo;;&;*O.##.                         ",
"           *;;*;;;XO.#..                         ",
"           &&****XXO...*.                        ",
"            ***XXXO.&**&.                        ",
"            OOOOOOO.oo&&.                        ",
"            O+++OO..o&&.                         ",
"           &&;;;+O.X....                         ",
"           &;;;;&o.XXOX.                         ",
"           O+++&&..o&*&.                         ",
"           O++++O.o&&**o                         ",
"           O+++OO.ooOOOo                         ",
"          O++++O.oXXOOO.                         ",
"          O+++OO..XXOOO.                         ",
"          O+++O. .XXOOO.                         ",
"          O++OO. .XXOOO.                         ",
"          O++O.   .XXOO.                         ",
"          O+O.    .XXO.                          ",
"          OO.     .XXO.                          ",
"          ..       .XO.                          ",
"                   .XX.                          ",
"                                                 "
};
