/* XPM */
static char *end_31664130493[] = {
/* columns rows colors chars-per-pixel */
"97 32 6 1 ",
"  c None",
". c #242490",
"X c #4848B4",
"o c #6C6CD8",
"O c #9090FC",
"+ c gray99",
/* pixels */
"    .XoOOOOoX.            .XoOOOoX.          .........    ......     ......          .XoOOOoX    ",
"   .++++++++++OX.      .XO+++++++++OX.      X++++++++o   X++++++X   X++++++X      .XO++++++++OX. ",
" .++++++++++++++o     .O+++++++++++++O.     X++++++++O.  X++++++X   X++++++X     .O++++++++++++O ",
".O++++++++++++++X    .O+++++++++++++++O.    X+++++++++o  X++++++X   X++++++X    .O+++++++++++++o ",
"O++++++++++++++O.   .O+++++++++++++++++O.   X+++++++++O. X++++++X   X++++++X   .O++++++++++++++. ",
"O++++++OOoO++++o    X+++++++++++++++++++X   X++++++++++o X++++++X   X++++++X   X++++++++++++++O  ",
"++++++O.   ..Xo.    O++++++++OOOO+++++++O   X++++++++++O.X++++++X   X++++++X   O++++++++OOOO++o  ",
"++++++O.           .++++++++O.   X+++++++.  X+++++++++++oX++++++X   X++++++X  .++++++++O.   XO.  ",
"+++++++OOOOX.      X+++++++X      o++++++X  X+++++++++++OX++++++X   X++++++X  X+++++++X          ",
"O++++++++++++OX    o++++++O       .++++++o  X++++++++++++o++++++X   o++++++X  o++++++O           ",
"X++++++++++++++.   O++++++o        ++++++O  X+++++++++++++++++++X   o++++++X  O++++++o           ",
" X++++++++++++++.  O++++++        o++++++O  X+++++++++++++++++++X   o++++++X  O++++++            ",
"  .oO+++++++++++X  o++++++.       O++++++o  X++++++o++++++++++++X   o++++++X  o++++++.           ",
"      ..++++++++O  X++++++o      X+++++++X  X++++++XO+++++++++++X   o++++++X  X++++++o      Xo   ",
"        X+++++++O  .+++++++X   .O++++++++.  X++++++Xo+++++++++++X   o++++++X  .+++++++X   .O+O   ",
" .ooX.XoO+++++++O   O+++++++OOOO++++++++O   X++++++X.O++++++++++X   o++++++X   O+++++++OOOO+++X  ",
" o++++++++++++++X   X+++++++++++++++++++X   X++++++X o++++++++++X   o++++++X   X++++++++++++++o  ",
".O+++++++++++++O    .O+++++++++++++++++O.   X++++++X .O+++++++++X   o++++++X   .O+++++++++++++O  ",
"X++++++++++++++.     .O+++++++++++++++O.    X++++++X  o+++++++++X   o++++++X    .O+++++++++++++X ",
"o++++++++++++Oo       .O+++++++++++++O.     X++++++X  .O++++++++X   o++++++X     .O++++++++++++o ",
".XO++++++++Oo          .XO+++++++++OX.      X++++++X   o++++++++X   o++++++X      .XO+++++++++OO ",
"   ........               .XoOOOoX.          ......    .........     ......          .XoOOOOoX.. ",
"                                                                                                 ",
"                                                                                                 ",
"XXXXX   XX  XX   XXXXX       XX  XX   XXXXX   XXXXX     oOOo    XXXXX   XX  XX    XooX     oOOo  ",
"O+++O   o+  +o   o+++o       o+  +o   o+++o   o+++o    oO++Oo   o+++o   o+  +o   oO++Oo   oO++Oo ",
" o+o    o+XX+o   o+O..       o+XX+o   o+O..   o+.X+o   O+..OO   o+O..   o+XX+o   o+XX+o   O+..OO ",
" o+o    o++++o   o+++o       o++++o   o+++o   o+  +o   O+o++o   o+++o   o++++o   o+..+o   O+o++o ",
" o+o    o+XX+o   o+O..       o+XX+o   o+O..   o+.X+o   O+..+o   o+O..   o+XX+o   o+XX+o   O+..+o ",
" o+o    o+  +o   o+++o       o+  +o   o+++o   o+++o    oO+++o   o+++o   o+  +o   oO++Oo   oO+++o ",
" XXX    XX  XX   XXXXX       XX  XX   XXXXX   XXXXX     oOOo.   XXXXX   XX  XX    XooX     oOOo. ",
"                                                                                                 "
};
