/* XPM */
static char *_1664576993[] = {
/* columns rows colors chars-per-pixel */
"150 60 12 1 ",
"  c None",
". c black",
"X c #B46C48",
"o c #FCFC00",
"O c #242490",
"+ c #107084",
"@ c #6C6CD8",
"# c #909090",
"$ c #B4B4B4",
"% c #FCB490",
"& c #9090FC",
"* c gray99",
/* pixels */
"                                                                                                                                                      ",
"                                                                                                                                                      ",
"                                                                                                                          ..........                  ",
"                                                                                                                      ....O @&&&&@ O....              ",
"                                                                                                                   ...O@&&&&&&&&&&&&&@ O..            ",
"                                                                                                                 ..O@&&&&&&&&&&&&&&&&&&&@O.           ",
"       $*****$   *.      *****      ****       ***.  *****.      *****   *.                 *****.   *****.    ..$*$.&&&&&&&&&&$*****$&&&*..          ",
"     $***....$*$ *.    **#...#**     ***$       *..   ***..    **#...#** *.                 .***..    ***..  ..O@***.&&&&&&&&$***....$*$&*.O.         ",
"     ***.    ..$**.   **#.   .#**    ****       *.    ***.    **#.   .#***.                  ***.     ***. ..O@&$***$.&&&&&&&***.&&&&..$**.@O.        ",
"     ***.      .$*.  ***.      ***   *.***      *.    ***.   ***.      ***.                  ***.     ***..O@&&&*.$**.&&&&&&&***.&&&&&&.$*.&@.        ",
"     ***.       .*.  **#.      #**   *.$***     *.    ***.   **#.      #**.                  ***.     ***.O@&&&&*.&**$.&&&&&&***.&&&&&&&.*.&&O.       ",
"     $***        *. ***.        ***. *..***$    *.    ***.  ***.        ...                  ***.     ***.@&&&&$$.&***.&&&&&&$***&&&&&&&&*.&& .       ",
"     .$***$      .. ***.        ***. *. .***    *.    ***.  ***.                             ***.     ***.&&&&&*.&&$**.&&&&&&.$***$&&&&&&..&&@.       ",
"      ..$*****$     ***.        ***. *.  .***   *.    ***.  ***.                             ************.&&&&&*.&&&**$.&&&&&&..$*****$&&&&&&&.       ",
"        ....$***$   ***.        ***. *.  .$***  *.    ***.  ***.                             ***......***.&&&&$*.&&&***.&&&&&&&&....$***$&&&&&O.      ",
"     *      ..***$. ***.        ***. *.   .***$ *.    ***.  ***.                             ***.  .O@***.&&&&*********.&&&&&*&&&&&&..***$.&&& .      ",
"     *        .***. .**#.      #**.  *.    .*** *.    ***.  .**#.       #*.                  ***. .O@&***.&&&&*......**$.&&&&*&&&&&&&&.***.&&&@.      ",
"     *$        ***.  ***.      ***.  *.     .****.    ***.   ***.       **.                  ***..O@&&***.&&&$$.&&&&&***.&&&&*$&&&&&&&&***.&&&&.      ",
"     ***       ***.  .**#.    #**.   *.     .$***.    ***.   .**#.     #*.                   ***..@&&&***.&&&*.&&&&&&$**.&&&&***&&&&&&&***.&&&&.      ",
"     *.$*$    ***$.   .**#   #**.    *.      .***.    ***.    .**#   #**.                    ***.O&&&&***.&&&*.&&&&&&&**$.&&&*.$*$&&&&***$.&&&&.      ",
"     *...******$..     ..*****..    ***.      .**.   *****.    ..*****..                    *****.&&&*****.&***.&&&&&*****.&&*...******$..&&&&&.      ",
"     .   .......         .....      ....       ...   ......      .....                      ......&&&......&....&&&&&......&&.&&&.......&&&&&&@.      ",
"                                                                                              .@&&&&&&&&&&&&&&&&&&&&&&&&&&&&&&&&&&&&&&&&&&&&&& .      ",
"                                                                                             .O&&&&&&&&&&&&&&&&&&&&&&&&&&&&&&&&&&&&&&&&&&&&&&&O.      ",
"                                                                                             .@&&&&&&&&&&&&&&&&&&&&&&&&&&&&&&&&&&&&&&&&&&&&&&&.       ",
"                                                                                            .O&&&&&&&&&&&&&&&&&&&&&&&&&&&&&&&&&&&&&&&&&&&&&&&&.       ",
"                        **********$          $*$.          $*****$   *.    $*****$   *. *************.&&*********&&&&&&&&&&&&&&&&&&&&&&&&&&&&@.       ",
"                        .***.....#**$        ***.        $***....$*$ *.  $***....$*$ *. .***.......#*.&&.***....#**&&&&&&&&&&&&&&&&&&&&&&&&&&O.       ",
"                         ***.    .#**$.     $***$.       ***.    ..$**.  ***.    ..$**.  ***.&&&&&&.*.&&&***.&&&.#**&&&&&&&&&&&&&&&&&&&&&&&&&.        ",
"                         ***.      ***.     *.$**.       ***.      .$*.  ***.      .$*.  ***.&&&&&&&*.&&&***.&&&&.***&&&&&&&&&&&&&&ooo.&&&&&@.        ",
"                         ***.      ***.     *. **$.      ***.       .*.  ***.       .*.  ***.&&&&&&&..&&&***.&&&&&#**&&&&&&&&&&&&&oooo.&&&&&O.        ",
"                         ***.     #**$.    $$. ***.      $***        *.  $***        *.  ***.&&&&*.&&&&&&***.&&&&&.***.&&&&&&&&&&ooooo.&&&&@.         ",
"                         ***.    #**$.     *.  $**.      .$***$      ..  .$***$      ..  ***.&&&**.&&&&&&***.&&&&&&***.&&&&&&&&&oooooo.&&&&O.         ",
"                         *********$..      *.   **$.      ..$*****$       ..$*****$      *********.&&&&&&***.&&&&&&***.&&&&&&&&&oooooo.&&&@.          ",
"                         ***.......       $*.   ***.        ....$***$       ....$***$    ***....**.&&&&&&***.&&&&&&***.&&&&&&&&&oooooo.&&&O.          ",
"                         ***.             *********.     *      ..***$.  *      ..***$.  ***.&&&.*.&&&&&&***.&&&&&&***.&&&&&&&&&..oooo.&&@.           ",
"                         ***.             *......**$.    *        .***.  *        .***. .***.&&&&..&&&&&&***.&&&&&#**.&&&&&&&&&&&&oooo.&&O.           ",
"                         ***.            $$.     ***.    *$        ***.  *$        ***. .***.&&&&&&&*.&&&***.&&&&&***.&&&&&&&&&&&&oooo.&@.            ",
"                         ***.            *.      $**.    ***       ***.  ***       ***. .***.&&&&&&&*.&&&***.&&&&#**.&&&&&&&&&&&&&oooo.@O.            ",
"                         ***.            *.       **$.   *.$*$    ***$.  *.$*$    ***$. .***.&&&&&&#*.&&&***.&&&#**.&&&&&&&&&&&&&&oooo.O.             ",
"                        *****.          ***.     *****.  *...******$..   *...******$..  *************.&&*********..&&&&&&&&&&&&&&&oooo..              ",
"                        ......          ....     ......  .   .......     .   .......    ..............&&.........&&&&&&&&&&&&&&&&&oooo.               ",
"                                                                                        .&&&&&&&&&&&&&&&&&&&&&&&&&&&&&&&&&&&&&&&&&oooo.               ",
"                                                                                        .@&&&&&&&&&&&&&&&&&&&&&&&&&&&&&&&&&&&&&&&&oooo.               ",
"                                                                                        . &&&&&&&&&&&&&%.&&$%%%X+%%%%%%.&&&&&&&&&&oooo.               ",
"                                                                                        .O&&&&&&&&&&&&%%.&$%#.#%.&&%%...&&&&&&&&&@oooo.               ",
"                                                                                         .&&&&&&&&&&&%%%.&%%.&...&&%%.&&&&&&&&&&@Ooooo.               ",
"                                                                                         .@&&&&&&&&&%%.%.&%%.&&&&&&%%.&&&&&&&&@@O.oooo.               ",
"                                                                                         . &&&&&&&&%%..%.&%%.&&&&&&%%.&&&&&&&@O.. oooo.               ",
"                                                                                         .O&&&&&&&%%%%%%.&$%#&#%.&&%%.&&&&&&@O.   oooo.               ",
"                                                                                          .@&&&&&%%%...%.&.$%%%X.&&%%.&&&&&@O.    oooo.               ",
"                                                                                          .O@&&&....&&&..&&.....&&&...&&&@O..     oooo.               ",
"                                                                                           .O@&&&&&&&&&&&&&&&&&&&&&&&&&@O..       .....               ",
"                                                                                            .O@&&&&&&&&&&&&&&&&&&&&&&@O..                             ",
"                                                                                             .O@&&&&&&&&&&&&&&&&&&&@O..                               ",
"                                                                                              ..O @&&&&&&&&&&&&&@O...                                 ",
"                                                                                                ....O @&&&&@ O....                                    ",
"                                                                                                    ..........                                        ",
"                                                                                                                                                      ",
"                                                                                                                                                      "
};
