/* XPM */
static char *__left1663272666[] = {
/* columns rows colors chars-per-pixel */
"32 32 7 1 ",
"  c None",
". c #B46C48",
"X c #242490",
"o c #4848B4",
"O c #6C6CD8",
"+ c #FCB490",
"@ c #9090FC",
/* pixels */
"                                ",
"                                ",
"                                ",
"                                ",
"                                ",
"                                ",
"                                ",
"                                ",
"                                ",
"                                ",
"                                ",
"                                ",
"                                ",
"                                ",
"                                ",
"                                ",
"                                ",
"                                ",
"                                ",
"                                ",
"                                ",
"                                ",
"                                ",
"                                ",
"                                ",
"                                ",
"                                ",
"             ooooo              ",
"          oooOOooooooo          ",
"   X    ooOOOXXoooooXXXX        ",
"   XX ooOOOOX+XooXXXXX          ",
"   XXoOOO@OX++.XXXX             "
};
