/* XPM */
static char *__right1663271524[] = {
/* columns rows colors chars-per-pixel */
"32 32 14 1 ",
"  c None",
". c black",
"X c #484848",
"o c #900000",
"O c #FC0000",
"+ c #B46C48",
"@ c #242490",
"# c #4848B4",
"$ c #6C6CD8",
"% c #909090",
"& c #B4B4B4",
"* c #FCB490",
"= c #9090FC",
"- c gray99",
/* pixels */
"            @@##@@+***$==$      ",
"          ######@@***$===$$     ",
"        ########$@*@$$$$==$     ",
"      #########$$$$$$$=-$=$$    ",
"     ##########$$$$$$$---$$$    ",
"    ##@@@@@####$$$$$$=---.$$    ",
"   #@@@@@@@@####$$$$$=---.@$    ",
"        @@@@@###$$$$$=---..     ",
"          @@#####$$$$$---..X    ",
"         #####@###*--$=---%..%  ",
"       #######@@#+***----*...   ",
"      #@@@@@@@@@@+********      ",
"      #@@@@@@@---@+****++       ",
"     #@@@@@@@-----%++++         ",
"     #   %X@@------o            ",
"       %%X#&%------+            ",
"       %X**--%-&%-%+ @@         ",
"       XX++-&X&&X&X+@@@@        ",
"        #@@@%#XXX+++@.@@        ",
"        #@   ###+++..@@         ",
"        #    @##@@X%XX@         ",
"            @.#@  XX%%%         ",
"      OO  @@@.#@ .o%%%%         ",
"    .OOo---..=# .oooo%o         ",
"    .OO&--%#=$# .ooooo%%        ",
"    .OO&%%%@##   ..oo%%oo       ",
"    .OOX&&%%       ...ooooo     ",
"    .OOoX%            ...ooo    ",
"    .%--%OOO             ...    ",
"    .-OOOOOOOO                  ",
"    .oOOOOOOOOOo                ",
"     ...........                "
};
