/* XPM */
static char *__left1663272667[] = {
/* columns rows colors chars-per-pixel */
"32 32 15 1 ",
"  c None",
". c black",
"X c #480000",
"o c #484848",
"O c #900000",
"+ c #FC0000",
"@ c #B46C48",
"# c #242490",
"$ c #4848B4",
"% c #6C6CD8",
"& c #909090",
"* c #B4B4B4",
"= c #FCB490",
"- c #9090FC",
"; c gray99",
/* pixels */
"    %%---%===##$$$$$$           ",
"    %--%%%%#=#%$$$$$$$$         ",
"   %%-%;-%%%%%%%$$$$$$$$$       ",
"   %%%;;;%%%%%%%$$$$$$$$$$      ",
"   %%.;;;-%%%%%%$$$$#####$$     ",
"   %#.;;;-%%%%%$$$$########$    ",
"    ..;;;-%%%%%$$$#####         ",
"   o..;;;%%%%%$$$$$##           ",
" &..&;;;-%;;=$$$#$$$$$          ",
"  ...=;;;;===@$##$$$$$$$        ",
"     &*&=====@#####$$$$$$       ",
"   &*;;*&===@#########$$$       ",
"   *;;;;*@@@###$$#######$$      ",
"   ;;;;;;&; @@#=$$##....#$&&    ",
"   *;;;;*;;@@=@=@$###$oo..o&&   ",
"   &o***o**==@@=@$$###$o&ooo&&  ",
"     o&o###@@===@$$###$ooo&&o&  ",
"O   &###..#OO@@@$$$####$o&&o&o  ",
"O& &&&#.  .#@O$$$%#  #++++ooo   ",
"O&&O&&&.    #$$$$$%  ;;;*++     ",
".&&OO&oo.        $$%%%$.;*++    ",
"X.oOO&o.           $$$..;*+++   ",
"XX.OOO.             o;;;*&+++&  ",
"XX.OOO.              o;*&&++;;  ",
"OXX.OO.               .OOO+;;;+ ",
" OX.O.                 .&&;;;++ ",
"  X..                   .&&++++ ",
"                         .OO++++",
"                          ..O+++",
"                            ..++",
"                              ..",
"                                "
};
