/* XPM */
static char *__left1663272667[] = {
/* columns rows colors chars-per-pixel */
"32 32 7 1 ",
"  c None",
". c #B46C48",
"X c #242490",
"o c #4848B4",
"O c #6C6CD8",
"+ c #FCB490",
"@ c #9090FC",
/* pixels */
"                                ",
"                                ",
"                                ",
"                                ",
"                                ",
"                                ",
"                                ",
"                                ",
"                                ",
"                                ",
"                                ",
"                                ",
"                                ",
"                                ",
"                                ",
"                                ",
"                                ",
"                                ",
"                                ",
"                                ",
"                                ",
"                                ",
"                                ",
"                                ",
"                                ",
"                                ",
"             OOOOOOO            ",
"          OOOOOOOOOOOOOo        ",
"       X O+OOOOOOooooooooo      ",
"       OOO+.OOooooXXXXX         ",
"     OO@O+++XXooXXXX            ",
"     O@@O+++.XXooXX             "
};
