/* XPM */
static char *__right1663271524[] = {
/* columns rows colors chars-per-pixel */
"32 32 7 1 ",
"  c None",
". c #B46C48",
"X c #242490",
"o c #4848B4",
"O c #6C6CD8",
"+ c #FCB490",
"@ c #9090FC",
/* pixels */
"                                ",
"                                ",
"                                ",
"                                ",
"                                ",
"                                ",
"                                ",
"                                ",
"                                ",
"                                ",
"                                ",
"                                ",
"                                ",
"                                ",
"                                ",
"                                ",
"                                ",
"                                ",
"                                ",
"                                ",
"                                ",
"                                ",
"                                ",
"                                ",
"                                ",
"                                ",
"            OOOOOOO             ",
"        oOOOOOOOOOOOOO          ",
"      oooooooooOOOOOO+O X       ",
"         XXXXXooooOO.+OOO       ",
"            XXXXooXX+++O@OO     ",
"             XXooXX.+++O@@O     "
};
