/* XPM */
static char *__right1663691658[] = {
/* columns rows colors chars-per-pixel */
"32 32 16 1 ",
"  c None",
". c black",
"X c #480000",
"o c #484848",
"O c #900000",
"+ c #FC0000",
"@ c #B46C48",
"# c #FCFC00",
"$ c #242490",
"% c #4848B4",
"& c #6C6CD8",
"* c #909090",
"= c #B4B4B4",
"- c #FCB490",
"; c #9090FC",
": c gray99",
/* pixels */
"                                ",
"                                ",
"                                ",
"        OOOOOOOO+-              ",
"     +OOOO++++++OO++-           ",
"   +OOO++++++++---OO+--         ",
"  +OO++-----.+--::-+O++- ##     ",
" +OO+-+++++...--::-++O++##.     ",
"+OO+++++++...++---+++...#.  ### ",
"+O++++++++..+++++++..$$@.%%+... ",
"OO+++++++...++++++.$$$%@.&+.    ",
"XO++OOOO+..++++++.$$$%%&;;.%$   ",
"XOOOOOOOO+.++++++.$$$:::;;&%=   ",
"XXOO++++++++++++.$$$=::::&%:=*  ",
"======::o.O+++++.$$$==:::%%:=*  ",
"*****::**o.OO+++.$$$*=..:%$=.*  ",
"*****::*oo.OOO+.$$$$*=..:%$=.*  ",
"oooooo*oo+.%;OO.$$$$$===$$$$=$  ",
"+++++#+*@.%o:;.###@$$$$$$$$$$$  ",
"..........%.o.#o:##@$o.==:.:o.  ",
"*o......XXX%.##.o@OO$o==::X:=.  ",
".=oooooo...O####@O:*...o=:X=.*  ",
" .==**oooo.@##@OO=:=.oo..=.*.** ",
"  ..===***..@O...o=:..oo*. ..** ",
"   ....====*...@o..:..**     .* ",
"    .o*............:..       .* ",
"    .o*=......oo.....o          ",
"    .oo**....ooo.....o          ",
"     .oo***oooo.....o           ",
"     ..ooooooo.....oo           ",
"       ..ooo.....oo             ",
"         ......oo               "
};
