/* XPM */
static char *__left1663686765[] = {
/* columns rows colors chars-per-pixel */
"32 32 16 1 ",
"  c None",
". c black",
"X c #480000",
"o c #484848",
"O c #900000",
"+ c #FC0000",
"@ c #B46C48",
"# c #FCFC00",
"$ c #242490",
"% c #4848B4",
"& c #6C6CD8",
"* c #909090",
"= c #B4B4B4",
"- c #FCB490",
"; c #9090FC",
": c gray99",
/* pixels */
"                                ",
"                                ",
"                                ",
"              -+OOOOOOOO        ",
"           -++OO++++++OOOO+     ",
"         --+OO---++++++++OOO+   ",
"     ## -++O+-::--+.-----++OO+  ",
"     .##++O++-::--...+++++-+OO+ ",
" ###  .#...+++---++...+++++++OO+",
" ...+%%.@$$..+++++++..++++++++O+",
"    .+&.@%$$$.++++++...+++++++OO",
"   $%.;;&%%$$$.++++++..+OOOO++OX",
"   =%&;;:::$$$.++++++.+OOOOOOOOX",
"  *=:%&::::=$$$.++++++++++++OOXX",
"  *=:%%:::==$$$.+++++O.o::======",
"  *.=$%:..=*$$$.+++OO.o**::*****",
"  *.=$%:..=*$$$$.+OOO.oo*::*****",
"  $=$$$$===$$$$$.OO;%.+oo*oooooo",
"  $$$$$$$$$$$$$$..;:o%.@*+#+++++",
"  .o:.:==.o$$$$$..;o.%..........",
"  .=:X::==o$$$$..;%%%XXX......o*",
"   .=X:=o..@@##@;%%.....oooooo=.",
"  #.*.=..########%..oooooo**==. ",
" #@*.@.*###:o##@@..o*****===..  ",
" @@..@. ##@o.@@@O.o**====....   ",
" *.@..  ##@@@OO..........*o.    ",
"***.     ***....oo......=*o.    ",
"**.      =:.....ooo....**oo.    ",
"*.       :=.o....oooo***oo.     ",
"*.       :.  oo...ooooooo..     ",
"*.       :.    o....ooo..       ",
"                o......         "
};
