/* XPM */
static char *__right1663691659[] = {
/* columns rows colors chars-per-pixel */
"32 32 8 1 ",
"  c None",
". c black",
"X c #480000",
"o c #484848",
"O c #FC0000",
"+ c #909090",
"@ c #B4B4B4",
"# c gray99",
/* pixels */
"                                ",
"                                ",
"                                ",
"                                ",
"                                ",
"                                ",
"                                ",
"                                ",
"                                ",
"                                ",
"                               O",
"                               O",
"                               O",
"                              OX",
"                  oo@    @@   o@",
"                oo++o@@ +##@.o++",
"                oo++@@@ oo++.+++",
"                +oo+@+@@oooo.ooo",
"                +o+++++@.OO. .oo",
"                oo++o++o ..   ..",
"                  ooo++        .",
"                  o++o          ",
"                                ",
"                                ",
"                                ",
"                                ",
"                                ",
"                                ",
"                                ",
"                                ",
"                                ",
"                                "
};
