/* XPM */
static char *__left1663686766[] = {
/* columns rows colors chars-per-pixel */
"32 32 8 1 ",
"  c None",
". c black",
"X c #480000",
"o c #484848",
"O c #FC0000",
"+ c #909090",
"@ c #B4B4B4",
"# c gray99",
/* pixels */
"                                ",
"                                ",
"                                ",
"                                ",
"                                ",
"                                ",
"                                ",
"                                ",
"                                ",
"                                ",
"O                               ",
"O                               ",
"O                               ",
"XO                              ",
"@o   @@    + o                  ",
"++o.@##+ +o   o                 ",
"+++.++oo  + o o                 ",
"ooo.oooo+      o                ",
"oo. .OO. oo o                   ",
"..   .. o    o o                ",
".         o o                   ",
"           o o                  ",
"                                ",
"                                ",
"                                ",
"                                ",
"                                ",
"                                ",
"                                ",
"                                ",
"                                ",
"                                "
};
