/* XPM */
static char *_1663187068[] = {
/* columns rows colors chars-per-pixel */
"32 32 5 1 ",
"  c None",
". c #484800",
"X c #909000",
"o c #FCFC00",
"O c gray99",
/* pixels */
"                                ",
"                                ",
"                                ",
"                                ",
"                                ",
"                                ",
"                                ",
"                                ",
"                                ",
"                                ",
"                                ",
"                                ",
"                                ",
"                                ",
"             XoOOOO             ",
"           XoooooooOO           ",
"          XooX....XoOO          ",
"         .XoX.    ..XOO         ",
"         .oX        .oO         ",
"        .Xo.        .XoO        ",
"        .oo          .oO        ",
"        .oO          .oO        ",
"        .oO          .oO        ",
"        .oO          .oo        ",
"        .XOo        .XoX        ",
"         .oO        Xoo         ",
"         .XoOo    .XooX         ",
"          .XoOOOOoooXX          ",
"           ..XooooX..           ",
"             ......             ",
"                                ",
"                                "
};
