/* XPM */
static char *_1663187068[] = {
/* columns rows colors chars-per-pixel */
"32 32 5 1 ",
"  c None",
". c #484800",
"X c #909000",
"o c #FCFC00",
"O c gray99",
/* pixels */
"                                ",
"                                ",
"                                ",
"                                ",
"                                ",
"                                ",
"                                ",
"                                ",
"                                ",
"                                ",
"                                ",
"                                ",
"                                ",
"                                ",
"              ooXX              ",
"            oOooooX             ",
"           oOoX..XoX            ",
"           OoX.  .XoX           ",
"          oOoX    .oX           ",
"          oOX.    .Xo.          ",
"          OoX.     Xo.          ",
"          OoX.     Xo.          ",
"          OoX.     Xo.          ",
"          OoX.     Xo.          ",
"          XOX.    .Xo.          ",
"          .ooX    Xo.           ",
"           XoX.  XXo.           ",
"           .ooXXXoo.            ",
"            ..oooX.             ",
"              ....              ",
"                                ",
"                                "
};
