/* XPM */
static char *_1663187068[] = {
/* columns rows colors chars-per-pixel */
"32 32 5 1 ",
"  c None",
". c #484800",
"X c #909000",
"o c #FCFC00",
"O c gray99",
/* pixels */
"                                ",
"                                ",
"                                ",
"                                ",
"                                ",
"                                ",
"                                ",
"                                ",
"                                ",
"                                ",
"                                ",
"                                ",
"                                ",
"                                ",
"            .       .           ",
"            X       X           ",
"            o      .o.          ",
"           .O.   .XoOoX.        ",
"          .XOX.    .o.          ",
"        .XoOOOoX.   X           ",
"          .XOX.     .           ",
"           .O.                  ",
"            o      .            ",
"            X      X            ",
"            .     .o.           ",
"           X       X            ",
"          XoX      .            ",
"           X                    ",
"                                ",
"                                ",
"                                ",
"                                "
};
