/* XPM */
static char *_1663187068[] = {
/* columns rows colors chars-per-pixel */
"32 32 5 1 ",
"  c None",
". c #484800",
"X c #909000",
"o c #FCFC00",
"O c gray99",
/* pixels */
"                                ",
"                                ",
"                                ",
"                                ",
"                                ",
"                                ",
"                                ",
"                                ",
"                                ",
"                                ",
"                                ",
"                                ",
"                                ",
"                                ",
"                    X           ",
"            .      XoX          ",
"            X       X           ",
"           .o.     .            ",
"            X      X            ",
"            .      o            ",
"                  .O.           ",
"           .     .XOX.          ",
"           X   .XoOOOoX.        ",
"          .o.    .XOX.          ",
"        .XoOoX.   .O.           ",
"          .o.      o            ",
"           X       X            ",
"           .       .            ",
"                                ",
"                                ",
"                                ",
"                                "
};
