/* XPM */
static char *_1663190026[] = {
/* columns rows colors chars-per-pixel */
"32 32 10 1 ",
"  c None",
". c #240000",
"X c #6C2400",
"o c #D86C00",
"O c #48B400",
"+ c #FCD800",
"@ c #906CFC",
"# c #B490FC",
"$ c #D8B4FC",
"% c gray99",
/* pixels */
"               %O               ",
"               %O               ",
"              +%+O              ",
"   %+         %++O              ",
"    +%+       %++O         +%   ",
"    O+%%     +%+++O      +%+O   ",
"     +++%+   %++++O   +%%++O    ",
"      +++%%+++OOOO++%%%+++O     ",
"      ++++++O@@@@@@X+++++O      ",
"       +++O@@######@@X+++O      ",
"       ++O@##$%%$$##@@X+O       ",
"      o+O@#$%%$###$##@@O+       ",
"  o  ++OO@#%%########@@X+       ",
"  +%%%+O@#$%##########@@O++ o   ",
"%%%++++O@#$%##########@@O+++++  ",
"OO+++++O@#%$##########@@.+++++++",
"  OO+++O@#%###########@@.+++++OO",
"     O+O@#%###########@@O++OO.  ",
"       +@#$###########@@OOO     ",
"       +X@#$#########@@X+       ",
"       %O@###########@@X+       ",
"       %+X@########@@@XO+       ",
"      %+++X@@###@@@@@XO+++      ",
"     %+++++OX@@@@@@XOO++++      ",
"    O++++++++OO..OOO+++++++     ",
"    %+O OO   +++++O   OO+++O    ",
"   %O        +++++O      O++    ",
"              +++O         O+   ",
"              +++O              ",
"              +++O              ",
"               +O               ",
"               +O               "
};
