/* XPM */
static char *_1663190026[] = {
/* columns rows colors chars-per-pixel */
"32 32 8 1 ",
"  c None",
". c #6C2400",
"X c #48B400",
"o c #FCD800",
"O c #906CFC",
"+ c #B490FC",
"@ c #D8B4FC",
"# c gray99",
/* pixels */
"         X            X         ",
"         #X          #X         ",
"         #oX        #oX         ",
"         #ooX      #ooX         ",
"         #oooX    #oooX         ",
"         #ooooX  #ooooX         ",
"         #oooooo#oooooX         ",
"         #ooooXXXXooooX         ",
"         oooXOOOOOO.XXo         ",
"X########oXOO++++++OO.X########X",
" XoooooooXO++@###@++OO.oooooooX ",
"  XoooooXO+@##@@++@++OOXoooooX  ",
"   XooooXO+##++++++++OO.ooooX   ",
"    XooXO+@#++++++++++OOXooX    ",
"     XoXO+#@++++++++++OOXoX     ",
"      oXO+#+++++++++++OO.o      ",
"      #XO+#+++++++++++OO.o      ",
"      oXO+@+++++++++++OOXoo     ",
"     ooXO+@+++++++++++OOXooo    ",
"   #oooo.O+@+++++++++OO.ooooo   ",
"  #oooooXO+++++++++++OO.oooooo  ",
" #ooooooo.O++++++++OOO.Xooooooo ",
"XXXXXXXXXo.OO+++OOOOO.XoXXXXXXXX",
"         #oX.OOOOOO.XXo         ",
"         #oooXX..XXXooX         ",
"         #ooooooooooooX         ",
"         #ooooX  oooooX         ",
"         #oooX    ooooX         ",
"         #ooX      oooX         ",
"         #oX        ooX         ",
"         #X          oX         ",
"         X            X         "
};
