/* XPM */
static char *_1664126831[] = {
/* columns rows colors chars-per-pixel */
"144 16 6 1 ",
"  c None",
". c #242490",
"X c #4848B4",
"o c #6C6CD8",
"O c #9090FC",
"+ c gray99",
/* pixels */
"     +++++.           +++.      +++O.       O++.   ++++++++++.                       +++++.       ++++.     +++o   ++++++++++.   ++++++++.      ",
"   +++++++++.       +++++++.    ++++O.     O+++.   ++++++++++.                     +++++++++.     ++++X.   X+++.   ++++++++++.   ++++++++++.    ",
"  ++++++++++.      +++++++++.   +++++.     ++++.   ++++++++++.                    +++++++++++.    ++++O.   O+++.   ++++++++++.   +++++++++++.   ",
" ++++.....++.      +++...+++.   .++++O.   O++++.   +++........                   ++++.....++++.   .o+++.   +++o    +++........   .+++....+++.   ",
" +++.     ...     +++.   .+++.   +++++.   +++++.   +++.                          +++.     .+++.    .+++X. X+++.    +++.           +++.   .+++.  ",
"+++.              +++.    +++.   +++++O. O+++++.  +++++++++.                    +++.       .+++.    +++O. O+++.   +++++++++.      +++.    +++.  ",
"+++.      ++++.   +++.    +++.   ++++++. ++++++.  +++++++++.                    +++.        +++.    o+++. +++o    +++++++++.      +++.    +++.  ",
"+++.      ++++.   +++.    +++.   ++++++OO++++++.  +++++++++.                    +++.        +++.    .+++XX+++.    +++++++++.      +++.   +++.   ",
"+++.      ++++.  ++++++++++++.   +++O++++++O+++.  .+++......                    +++.        +++.     +++OO+++.    .+++......      ++++++++++.   ",
"+++.      +++.   ++++++++++++.   +++.++++++.+++.   +++.                         +++.        +++.     o++++++o      +++.           +++++++++.    ",
".+++.     +++.   ++++++++++++.   +++.O++++O.+++.   +++.                         .+++.      +++.      .++++++.      +++.           +++.++++.     ",
" ++++.   O+++.   .+++.....+++.   +++..++++. +++.   +++.                          ++++.    ++++.       ++++++.      +++.           +++..++++     ",
" .+++++++++++.    +++.    +++.   +++. O++O. +++.   ++++++++++.                   .+++++++++++.        o++++o       ++++++++++.    +++. .+++++.  ",
"  .+++++++++.     +++.    +++.   +++. .++.  +++.   ++++++++++.                    .+++++++++.         .++++.       ++++++++++.    +++.  .++++.  ",
"   ..+++++..      +++.    +++.   +++.  OO.  +++.   ++++++++++.                     ..+++++..           ++++.       ++++++++++.    +++.   .+++.  ",
"     .....        ....    ....   ....  ..   ....   ...........                       .....             .....       ...........    ....    ....  "
};
