/* XPM */
static char *_1664126832[] = {
/* columns rows colors chars-per-pixel */
"40 51 15 1 ",
"  c None",
". c black",
"X c #480000",
"o c #484848",
"O c #900000",
"+ c #FC0000",
"@ c #B46C48",
"# c #242490",
"$ c #4848B4",
"% c #6C6CD8",
"& c #909090",
"* c #B4B4B4",
"= c #FCB490",
"- c #9090FC",
"; c gray99",
/* pixels */
"                                        ",
"                                        ",
"                                        ",
"                $$$$$$                  ",
"              $$@@%%%%$$$     #         ",
"             $##==@%%%%%%$$  ##         ",
"            ####===@%%-%%%%%###         ",
"              ##==%%%%%--%%%%$#         ",
"        ;o o*  #@%%;;;-%-%-;;-#  *o o;  ",
"       ;o;oo;  #$$;;;;;%%-;;;;$  ;oo;o; ",
"      ;o;&;&; $$$-;;;;;-$-;;;;$  ;&;&;o;",
"      o;&**;;$##$-;;;;;;-;;;;;-$ ;;**&;o",
"      ;&;;*;;###$-;;;;;;;;;;;;-$ ;;*;;&;",
"      o;;;;*;####-;;;.&;;;&.;;-$ ;*;;;;o",
"       oo;;o&####-;;;.&;;;&.;;-# &o;;oo ",
"         o&*@####-;;;;;;;;;;;;-# @*&o   ",
"          * O= ##$-;;;;;;;;;;-$#@O *    ",
"             @=##@@=;;=@&.&;=@@OO       ",
"             #@=#@======...===@O        ",
"             ##@=@@==========@O         ",
"            ####@=O@@===.===@O          ",
"            #####@=.O@==.=@OO           ",
"            #    #@=#OO@=OO             ",
"                  #@@$OOOO#             ",
"                 ###$@@@@@@#            ",
"                ####$@@====$            ",
"                ####$@=====$            ",
"                #  .$@@===@#            ",
"                   #.$@@@@$             ",
"                 ##  $$##$#             ",
"                    $#....#$            ",
"                O**$#.     $            ",
"               +*;$#.      #$*          ",
"              O+*;#;     .O*#$;         ",
"             X++*;;;.   .OO*;;*         ",
"             X++O**O.   .OOO**;+        ",
"            .&*;+OOO.   .OO+OOO+*       ",
"            .&;;;&+.     .OO++;;++      ",
"           .O+++;*o.      .OO*+++++     ",
"           .O++++*.        ..*O++++O    ",
"           .O++++O.          ..OO+++    ",
"           .O+++O.             ..OOO+   ",
"           .OO+O.                ....   ",
"           .OOO.                        ",
"           .OO.                         ",
"            ..                          ",
"                                        ",
"                                        ",
"                                        ",
"                                        ",
"                                        "
};
