/* XPM */
static char *_0_left1664049624[] = {
/* columns rows colors chars-per-pixel */
"32 32 6 1 ",
"  c None",
". c black",
"X c #242490",
"o c #4848B4",
"O c #6C6CD8",
"+ c #9090FC",
/* pixels */
"                                ",
"                                ",
"                                ",
"                                ",
"                                ",
"                                ",
"                                ",
"                                ",
"                                ",
"                                ",
"                                ",
"                                ",
"                                ",
"                                ",
"                                ",
"                                ",
"                                ",
"                                ",
"                                ",
"                                ",
"                                ",
"                                ",
"                                ",
"                                ",
"                                ",
"                                ",
"                  X             ",
"                 XX             ",
"                Xoooo           ",
"              ooOOOOoooo        ",
"            ooO+++++OOOOoo      ",
"            .OO+++OOOOOOOOoo    "
};
