/* XPM */
static char *__right1663273927[] = {
/* columns rows colors chars-per-pixel */
"32 32 15 1 ",
"  c None",
". c black",
"X c #480000",
"o c #484848",
"O c #900000",
"+ c #FC0000",
"@ c #B46C48",
"# c #242490",
"$ c #4848B4",
"% c #6C6CD8",
"& c #909090",
"* c #B4B4B4",
"= c #FCB490",
"- c #9090FC",
"; c gray99",
/* pixels */
"                 ##==@%%-%%%$  #",
"                #$$===@%%%%%%$##",
"              $$$$$@@==%--%%%%$#",
"            $$###$$$%%%%%--%%%$#",
"           $#####$$$$$$$--%%%%%#",
"           #######$$$-;-%-%%%%%$",
"             #####$$-;;;$%-%%%%%",
"              ####$-;;;;-$%%%$-%",
"              ####$-;;;&.$%%$;-$",
"             ######$;;;o.-$%$.-#",
"            ########;;;.o;-$o.-#",
"           #######@=;;;.&;;;.o-#",
"           #######@==;;;;@&.&-# ",
"          ######.##=======...@#&",
"          #    ##.#@==XX=====@Oo",
"              ###@=O@@======@O&*",
"             #####@==O@@@@@OO&o;",
"             ######@@==OOOOo&o;*",
"             ####$#OO@@===o;o;;&",
"             # .#$$@@O @@@&*&;;o",
"              ####$$%    o*o;;*o",
"            ##..####$$%   o o&&&",
"             .##    ##$%     oo&",
"      OO  &&$#.    ;&$$        o",
"     .OO&&&$#. ..+;;;;          ",
"     .OO&&&#. .++++&;&&         ",
"     .OO&&&&  .+++++&&          ",
"    .OOOO&&    .+++++           ",
"    .OO&&++     .++&;;          ",
"    .&&O+OO++    .;;;+++++      ",
"    .OOOOOOOO+    .+++++++++    ",
"     .........     .........    "
};
