/* XPM */
static char *__left1663273928[] = {
/* columns rows colors chars-per-pixel */
"32 32 6 1 ",
"  c None",
". c #B46C48",
"X c #242490",
"o c #4848B4",
"O c #6C6CD8",
"+ c #FCB490",
/* pixels */
"                                ",
"                                ",
"                                ",
"                                ",
"                                ",
"                                ",
"                                ",
"                                ",
"                                ",
"                                ",
"                                ",
"                                ",
"                                ",
"                                ",
"                                ",
"                                ",
"                                ",
"                                ",
"                                ",
"                                ",
"                                ",
"                                ",
"                                ",
"                                ",
"                                ",
"                                ",
"                                ",
"                                ",
"          ooooo                 ",
"       oooOOOoXoo               ",
"     ooOOOO.XXXXXX              ",
"    oOOOOOO++XX                 "
};
