/* XPM */
static char *_1663186959[] = {
/* columns rows colors chars-per-pixel */
"32 32 6 1 ",
"  c #240000",
". c #6C2400",
"X c #006C00",
"o c #D86C00",
"O c #48B400",
"+ c #90FC00",
/* pixels */
".......Ooooooooo.......Ooooooooo",
"O...O..OOo+oooooO...O..OOo+oo+oO",
"O...O+.OOo+ooOooO...O+.OOo+oo+oO",
"OO.O++OOOO+Oo+OoOO.O++OOOO+OO+OO",
"OO+O++OOOO+O++OOOO+O++OOOO+OO+OO",
"OO+O++OOOO+O++OOOO+O++OOOO+OO+OO",
"OO+O++OOOO++++OOOO+O++OOOO++++OO",
"OO++++OOOO++++OOOO++++OOOO++++OO",
"XO++++OOOO++++OOXO++++OOOO++++OO",
"XO++++OOOXO++OOOXO++++OOOXO++OXO",
"XO+++OOXOXO++OOXXO+++OOXOXO++OXO",
"XXO++OOXOXO+OOOXXXO++OOXOXO++OXO",
"XXO+OOOXXXOOOOOXXXO+OOOXXXOOOOXX",
"XXOOOOXXXXOOOOXXXXOOOOXXXXOOOOXX",
"XXOOOOXXXXOOOOXXXXOOOOXXXXOOOOXX",
"XXOOOOXXXXOOOOXXXXOOOOXXXXOOOOXX",
"XXOOOOXXXXOOOOXXXXOOOOXXXXOOOOXX",
"XXOOOOXX.XOO.O.XXXOOOOXX.XOOOOX.",
"XX O OX .XOO.O.XXX O OX .XOOOOX.",
"XX O  X .XO.....XX O  X .XO..OX.",
"        ........        ........",
"        ........        ........",
"        ........        ........",
"        ........        ........",
"........        ........        ",
"........        ........        ",
"........        ........        ",
"........        ........        ",
"........        ........        ",
"........        ........        ",
"........        ........        ",
"........        ........        "
};
