/* XPM */
static char *_1663186959[] = {
/* columns rows colors chars-per-pixel */
"32 32 6 1 ",
"  c #240000",
". c #6C2400",
"X c #006C00",
"o c #D86C00",
"O c #48B400",
"+ c #90FC00",
/* pixels */
".OOOOOOOOOOOXXXXX       ........",
"...OOOOOOXXXXXXXXXXX    ........",
".++++++++OOOOOOOOOOO    ........",
"...OOO++++++OOOOOOO     ........",
"...OOO++++++OOOOOOO     ........",
".++++++++OOOOOOOOOOO    ........",
"...OOOOOOXXXXXXXXXXX    ........",
".OOOOOOOOOOOXXXXX       ........",
"OOOOOOOOOOXXXXXXXX......        ",
"oooOOOOOOOOOOXXXXXXX....        ",
"oo++++++++OOOOOOOOO.....        ",
"oOO+++++++++OOOOOO......        ",
"oooOOOO++++++OOOOOOO....        ",
"oooo+++++++OOOOOOO......        ",
"oooOOOOOOOOXXXXXXXXX....        ",
"oOOOOOOOXXXXXXXXXXXX....        ",
"....OOOOOOXXXXXXXXX     ........",
"...OOOOOOOOOOXXXX       ........",
"..O++++++OOOOOOOOOO     ........",
"....+++++++OOOOOO       ........",
"...OOO++++++OOOOOOO     ........",
".++++++++OOOOOOOOOOO    ........",
"...OOOOOOXXXXXXXXXXX    ........",
".OOOOOOOOOOOXXXXX       ........",
"OOOOOOOOOOXXXXXXXX......        ",
"oooOOOOOOOOOOXXXXXXX....        ",
"oo++++++++OOOOOOOOO.....        ",
"oOO+++++++++OOOOOO......        ",
"oooOOOO++++++OOOOOOO....        ",
"oooo+++++++OOOOOOO......        ",
"oooOOOOOOOOXXXXXXXXX....        ",
"oOOOOOOOXXXXXXXXXXXX....        "
};
