/* XPM */
static char *_1663186960[] = {
/* columns rows colors chars-per-pixel */
"32 32 6 1 ",
"  c #240000",
". c #6C2400",
"X c #006C00",
"o c #D86C00",
"O c #48B400",
"+ c #90FC00",
/* pixels */
"        ....XXXXXXXXXXXXOOOOOOOo",
"        ....XXXXXXXXXOOOOOOOOooo",
"        ......OOOOOOO+++++++oooo",
"        ....OOOOOOO++++++OOOOooo",
"        ......OOOOOO+++++++++OOo",
"        .....OOOOOOOOO++++++++oo",
"        ....XXXXXXXOOOOOOOOOOooo",
"        ......XXXXXXXXOOOOOOOOOO",
"........       XXXXXOOOOOOOOOOO.",
"........    XXXXXXXXXXXOOOOOO...",
"........    OOOOOOOOOOO++++++++.",
"........     OOOOOOO++++++OOO...",
"........       OOOOOO+++++++....",
"........     OOOOOOOOOO++++++O..",
"........       XXXXOOOOOOOOOO...",
"........     XXXXXXXXXOOOOOO....",
"        ....XXXXXXXXXXXXOOOOOOOo",
"        ....XXXXXXXXXOOOOOOOOooo",
"        ......OOOOOOO+++++++oooo",
"        ....OOOOOOO++++++OOOOooo",
"        ......OOOOOO+++++++++OOo",
"        .....OOOOOOOOO++++++++oo",
"        ....XXXXXXXOOOOOOOOOOooo",
"        ......XXXXXXXXOOOOOOOOOO",
"........       XXXXXOOOOOOOOOOO.",
"........    XXXXXXXXXXXOOOOOO...",
"........    OOOOOOOOOOO++++++++.",
"........     OOOOOOO++++++OOO...",
"........     OOOOOOO++++++OOO...",
"........    OOOOOOOOOOO++++++++.",
"........    XXXXXXXXXXXOOOOOO...",
"........       XXXXXOOOOOOOOOOO."
};
