/* XPM */
static char *_1663186960[] = {
/* columns rows colors chars-per-pixel */
"32 32 6 1 ",
"  c #240000",
". c #6C2400",
"X c #006C00",
"o c #D86C00",
"O c #48B400",
"+ c #90FC00",
/* pixels */
"        ........        ........",
"        ........        ........",
"        ........        ........",
"        ........        ........",
"        ........        ........",
"        ........        ........",
"        ........        ........",
"        ........        ........",
"........        ........        ",
"........        ........        ",
"........        ........        ",
"........        ........        ",
".XO..OX. X  O XX.....OX. X  O XX",
".XOOOOX. XO O XXX.O.OOX. XO O XX",
".XOOOOX.XXOOOOXXX.O.OOX.XXOOOOXX",
"XXOOOOXXXXOOOOXXXXOOOOXXXXOOOOXX",
"XXOOOOXXXXOOOOXXXXOOOOXXXXOOOOXX",
"XXOOOOXXXXOOOOXXXXOOOOXXXXOOOOXX",
"XXOOOOXXXXOOOOXXXXOOOOXXXXOOOOXX",
"XXOOOOXXXOOO+OXXXOOOOOXXXOOO+OXX",
"OXO++OXOXOO++OXXXOOO+OXOXOO++OXX",
"OXO++OXOXOO+++OXXOO++OXOXOO+++OX",
"OXO++OXOOO++++OXOOO++OXOOO++++OX",
"OO++++OOOO++++OXOO++++OOOO++++OX",
"OO++++OOOO++++OOOO++++OOOO++++OO",
"OO++++OOOO++O+OOOO++++OOOO++O+OO",
"OO+OO+OOOO++O+OOOO++O+OOOO++O+OO",
"OO+OO+OOOO++O+OOOO++O+OOOO++O+OO",
"OO+OO+OOOO++O.OOoO+oO+OOOO++O.OO",
"Oo+oo+oOO.+O...OooOoo+oOO.+O...O",
"Oo+oo+oOO..O...Oooooo+oOO..O...O",
"ooooooooO.......ooooooooO......."
};
