/* XPM */
static char *_1663186960[] = {
/* columns rows colors chars-per-pixel */
"32 32 173 2 ",
"   c None",
".  c #050545",
"X  c #000845",
"o  c #040C4B",
"O  c #090F4F",
"+  c #0D0B45",
"@  c #061358",
"#  c #141A62",
"$  c #161E6B",
"%  c #053C64",
"&  c #0E3E6D",
"*  c #0E3C74",
"=  c #133D74",
"-  c #153C7A",
";  c #202366",
":  c #212B66",
">  c #232870",
",  c #3B3E76",
"<  c #0E4362",
"1  c #1A4E67",
"2  c #13436C",
"3  c #194672",
"4  c #184476",
"5  c #122B85",
"6  c #173C85",
"7  c #193B86",
"8  c #1A3688",
"9  c #1D3A8B",
"0  c #292C80",
"q  c #293485",
"w  c #39368A",
"e  c #443C86",
"r  c #443D9D",
"t  c #493FA5",
"y  c #463EA1",
"u  c #4F3EB4",
"i  c #1E4181",
"p  c #284688",
"a  c #32508E",
"s  c #2E4694",
"d  c #2E4C91",
"f  c #374090",
"g  c #444D82",
"h  c #52588C",
"j  c #42429F",
"k  c #554B90",
"l  c #4B5C9F",
"z  c #59509F",
"x  c #5B5492",
"c  c #625D9F",
"v  c #68699D",
"b  c #63649B",
"n  c #4D42AA",
"m  c #5042AF",
"M  c #5E4EA9",
"N  c #5845B7",
"B  c #6259B3",
"V  c #5D68AB",
"C  c #7568AA",
"Z  c #7370A7",
"A  c #7771AA",
"S  c #7D76AD",
"D  c #6560B0",
"F  c #6E67B7",
"G  c #6E6ABE",
"H  c #7167BB",
"J  c #7D6CB8",
"K  c #765BD8",
"L  c #7A6CD3",
"P  c #886ABC",
"I  c #8176C6",
"U  c #8475CB",
"Y  c #8673DC",
"T  c #866BEA",
"R  c #8871E4",
"E  c #9774ED",
"W  c #9B7DEF",
"Q  c #9478EC",
"!  c #8B6BF6",
"~  c #8B66FD",
"^  c #8E6AFC",
"/  c #8763FC",
"(  c #966FF3",
")  c #9165FF",
"_  c #926CFC",
"`  c #996EFF",
"'  c #9672F7",
"]  c #9672FC",
"[  c #9B75FC",
"{  c #9E7AFC",
"}  c #9A79F5",
"|  c #A074FF",
" . c #A27DFD",
".. c #7F899D",
"X. c #7EA3BD",
"o. c #7F9CC1",
"O. c #819FBE",
"+. c #8B88C6",
"@. c #858FC9",
"#. c #8C8BCB",
"$. c #8794C7",
"%. c #819AC2",
"&. c #8A9EC7",
"*. c #9988DB",
"=. c #BAB0D9",
"-. c #9680E1",
";. c #9980E3",
":. c #A187E9",
">. c #AB8CEC",
",. c #AC93E7",
"<. c #B79EE8",
"1. c #B89AE7",
"2. c #A281F2",
"3. c #A582FC",
"4. c #AA85FD",
"5. c #AE8BFC",
"6. c #B286FF",
"7. c #B28DFC",
"8. c #BA8CFF",
"9. c #AE91FA",
"0. c #B392F6",
"q. c #B591FC",
"w. c #BA95FD",
"e. c #BD99FC",
"r. c #BB99F6",
"t. c #BCABF5",
"y. c #C597FF",
"u. c #C39CFE",
"i. c #C89DFF",
"p. c #CBABEF",
"a. c #C7A3F5",
"s. c #C8A7F4",
"d. c #C6AEF7",
"f. c #C9A9F0",
"g. c #C5A1FC",
"h. c #CBA5FD",
"j. c #C5A9F9",
"k. c #CDA9FC",
"l. c #D3ACFD",
"z. c #DCAEFD",
"x. c #D0ACF1",
"c. c #C6BEF1",
"v. c #C9BAF3",
"b. c #D6B9F2",
"n. c #D6B2FC",
"m. c #DAB5FD",
"M. c #DDB9FD",
"N. c #E3BDFE",
"B. c #C3CCE3",
"V. c #D3C2ED",
"C. c #C7DEE4",
"Z. c #CDD4EC",
"A. c #CCD9EC",
"S. c #D0D1ED",
"D. c #D3C4F3",
"F. c #DFCAFB",
"G. c #DBC7FB",
"H. c #D4D3F3",
"J. c #DED2FE",
"K. c #DEDAFB",
"L. c #D5D3F8",
"P. c #EAC3FF",
"I. c #E6CEFF",
"U. c #E8C9FF",
"Y. c #E0D1FF",
"T. c #CAE5E9",
"R. c #CBF9E5",
"E. c #D7F5EB",
"W. c #DBF6EE",
"Q. c #DDEAF4",
"!. c #DCF1F0",
"~. c #E0E7F5",
"^. c #E1E2F9",
/* pixels */
"                                                                ",
"                                                                ",
"                                                                ",
"                                                                ",
"                                                                ",
"                                                                ",
"                                                                ",
"                                                                ",
"              - 5       6 6 8 6 6 6 6 6 6 7 7 7 9               ",
"            q L @.@.#.%.X.X.X.o.%.o.o.o.X.O.X.&.#.f             ",
"          . P I.I.K.Q.!.W.W.E.L.G.F.I.J.^.~.K.U.z.M O           ",
"          > 1.P.h.j.c.v.v.D.t. .6.i.i.i.z.l.e.7. .K #           ",
"          z s.N.k.h.w.8.8.8.[ _ 7.g.h.m.m.g.q.5.| E $           ",
"          x p.N.k.h.w.7.7.3.] ] 7.g.h.M.n.g.q.5. .( e O         ",
"          k p.N.k.h.w.q.7.{ / _ q.g.j.M.l.w.7.4.^  .1.M @       ",
"        . C a.M.k.h.e.q.q.{ / ] q.g.k.m.g.7.q. ./ 4.P.a.#       ",
"      o , =.e.q.w.g.e.q.0.{ ^ ^ [ 7.k.n.w.5.w.{ / 3.n.f.> X     ",
"    o x B.H.9.] 4.g.e.q.w.{ ^ ~ ^ 3.u.g.7.q.w.3.~ { g.M.J +     ",
"  O b A.R.A.q._ { j.e.q.q.{ ~ ~ ^  .w.r.g.e.3.3.^ { e.P.f.e o   ",
"  : A.T.C.c.5._ ] e.w.q.q.{ _ ] 3.g.M.n.j.3.] [ ^ { e.M.M.>.w   ",
"  ; b.Z.S.d.e. .~ 4.q.q.q.5. .{ e.m.m.g.7.3.[ { ^ { w.m.k.4.r   ",
"  : V.H.D.j.e. .^ ] 5.q.7.r.4. .e.M.n.e.5.3.] [ ^  .q.h.e. .y   ",
"  g H.D.M.h.w.4.] / [ q.q.w.4.4.k.M.h.q.4.] _ ] ^ 3.q.w.7.[ t   ",
"  h L.M.M.j.w.w.[ ~ ] 5.w.7.4.e.M.n.r.7.3./ ^ ^ ^ { q.q.4._ t   ",
"  v H.M.M.h.w.7.[ ^ ^ 3.q.5.w.l.N.l.7.5.[ ~ ^ _ ^ ] 7.w.4._ n   ",
"  Z G.m.M.h.w.w.[ ^ ^ 3.q.e.k.M.n.u.w.4.^ ^ _ _ ^ ^ 4.w.4.] n   ",
"  A F.M.M.h.w.q.[ ) ~ 3.q.k.N.m.u.0.q.4.~ ^ _ ) ^ _ 7.0.3.` m   ",
"  A D.m.M.h.w.w.[ ) ) [ 6.k.m.h.w.w.0.2._ _ _ _ ^ ^ 5.w.4.' u   ",
"  S V.b.N.z.y.y. .` ` | e.l.<.,.e.u.r.>.} ] ] E Q [ w.u.5.[ N   ",
"  ..+.*.Y W *.W F I L L W R } :.2.H U L T ! ! ! ' ' B B B B j   ",
"  s d = & 2 < % % 1 p - = * i l 3 V a 4 4 - 2 7 s s 2 2 = 3 3   ",
"                                                                "
};
