/* XPM */
static char *_1663187387[] = {
/* columns rows colors chars-per-pixel */
"32 32 5 1 ",
"  c #240000",
". c #6C2400",
"X c #006C00",
"o c #48B400",
"O c #90FC00",
/* pixels */
"        ........        ........",
"        ........        ........",
"        ........        ........",
"        ........        ........",
"        ........        ........",
"        ........        ........",
"        ........        ........",
"        ........        ........",
"........        ........        ",
"........        ........        ",
"........        ........        ",
"........        ........        ",
".Xo..oX. X  o XX........        ",
".XooooX. Xo o XX........        ",
".XooooX.XXooooXX........        ",
"XXooooXXXXooooXX........        ",
"XXooooooooXXXXXXXXX     ........",
"XXoooooooooooXXXX       ........",
"XXoOOOOOOoooooooooo     ........",
"XXooOOOOOOOoooooo       ........",
"oXooooOOOOOOooooooo     ........",
"oOOOOOOOOooooooooooo    ........",
"oXoooooooXXXXXXXXXXX    ........",
"ooooooooooooXXXXX       ........",
"ooooooooooXXXXXXXX......        ",
"ooOooooooooooXXXXXXX....        ",
"ooOOOOOOOOooooooooo.....        ",
"oooOOOOOOOOOoooooo......        ",
"ooOooooOOOOOOooooooo....        ",
"oOOOOOOOOOOooooooo......        ",
"ooOooooooooXXXXXXXXX....        ",
".oooooooXXXXXXXXXXXX....        "
};
