/* XPM */
static char *_1663187387[] = {
/* columns rows colors chars-per-pixel */
"32 32 5 1 ",
"  c #240000",
". c #6C2400",
"X c #006C00",
"o c #48B400",
"O c #90FC00",
/* pixels */
" oooooooooooXXXXX       ........",
"ooOooooooXOXXXXXXXXX    ........",
"oOOOoOOoooOooooooooo    ........",
"ooOoOOooooOooOooooo     ........",
"ooOoOOooooOoOOooooo     ........",
"ooOoOOooooOoOOoooooo    ........",
"ooOoOOooooOOOOooXXXX    ........",
"ooOOOOooooOOOOooX       ........",
"XoOOOOooooOOOOooXX......        ",
"XoOOOOoooXoOOoooXXXX....        ",
"XoOOOooXoXoOOooXooo.....        ",
"XXoOOooXoXoOoooXoo......        ",
"XXoOoooXXXoooooXoooo....        ",
"XXooooXXXXooooXXoo......        ",
"XXooooXXXXooooXXXXXX....        ",
"XXooooXXXXooooXXXXXX....        ",
"XXooooXXXXooooXX        ........",
"XXooooXX.Xoo.o.X        ........",
"XX o oX .Xoo.o.X        ........",
"XX o  X .Xo.....        ........",
"        ........        ........",
"        ........        ........",
"        ........        ........",
"        ........        ........",
"........        ........        ",
"........        ........        ",
"........        ........        ",
"........        ........        ",
"........        ........        ",
"........        ........        ",
"........        ........        ",
"........        ........        "
};
