/* XPM */
static char *_1663187387[] = {
/* columns rows colors chars-per-pixel */
"32 32 5 1 ",
"  c #240000",
". c #6C2400",
"X c #006C00",
"o c #48B400",
"O c #90FC00",
/* pixels */
"        ....XXXXXXXXXXXXooooooo.",
"        ....XXXXXXXXXooooooooOoo",
"        ......oooooooOOOOOOOOOOo",
"        ....oooooooOOOOOOooooOoo",
"        ......ooooooOOOOOOOOOooo",
"        .....oooooooooOOOOOOOOoo",
"        ....XXXXXXXooooooooooOoo",
"        ......XXXXXXXXoooooooooo",
"........       XXXXXoooooooooooo",
"........    XXXXXXXXXXXoooooooXo",
"........    oooooooooooOOOOOOOOo",
"........     oooooooOOOOOOooooXo",
"........       ooooooOOOOOOOooXX",
"........     ooooooooooOOOOOOoXX",
"........       XXXXoooooooooooXX",
"........     XXXXXXXXXooooooooXX",
"        ........XXooooXXXXooooXX",
"        ........XXooooXX.XooooX.",
"        ........XX o oX .XooooX.",
"        ........XX o  X .Xo..oX.",
"        ........        ........",
"        ........        ........",
"        ........        ........",
"        ........        ........",
"........        ........        ",
"........        ........        ",
"........        ........        ",
"........        ........        ",
"........        ........        ",
"........        ........        ",
"........        ........        ",
"........        ........        "
};
