/* XPM */
static char *_1663187387[] = {
/* columns rows colors chars-per-pixel */
"32 32 5 1 ",
"  c #240000",
". c #6C2400",
"X c #006C00",
"o c #48B400",
"O c #90FC00",
/* pixels */
"        ........        ........",
"        ........        ........",
"        ........        ........",
"        ........        ........",
"        ........        ........",
"        ........        ........",
"        ........        ........",
"        ........        ........",
"........        ........        ",
"........        ........        ",
"........        ........        ",
"........        ........        ",
"........        .....oX. X  o XX",
"........        X.o.ooX. Xo o XX",
"........        X.o.ooX.XXooooXX",
"........        XXooooXXXXooooXX",
"        ....XXXXXXooooXXXXooooXX",
"        ....XXXXXXooooXXXXooooXX",
"        ......ooXXooooXXXXooooXX",
"        ....ooooXoooooXXXoooOoXX",
"        ......ooXoooOoXoXooOOoXX",
"        .....oooXooOOoXoXooOOOoX",
"        ....XXXXoooOOoXoooOOOOoX",
"        ......XXooOOOOooooOOOOoX",
"........       XooOOOOooooOOOOoo",
"........    XXXXooOOOOooooOOoOoo",
"........    ooooooOOoOooooOOoOoo",
"........     oooooOOoOooooOOoOoo",
"........     oooooOooOooooOOoOoo",
"........    oooooooooOoooOOoOOOo",
"........    XXXXXXXXXOXooooooOoo",
"........       XXXXXooooooooooo."
};
