/* XPM */
static char *aa2e828ed4194b87cd73fd375ceb7bb9LRBWACxbwieL0QZc[] = {
/* columns rows colors chars-per-pixel */
"32 32 15 1 ",
"  c None",
". c black",
"X c #480000",
"o c #484848",
"O c #900000",
"+ c #FC0000",
"@ c #B46C48",
"# c #242490",
"$ c #4848B4",
"% c #6C6CD8",
"& c #909090",
"* c #B4B4B4",
"= c #FCB490",
"- c #9090FC",
"; c gray99",
/* pixels */
"         $%%-%%%%-%%$$$#$$$     ",
"        $%%-%-;;%%%%%$$##$$$$   ",
"        -%%%-;;;-%%%%$$##$$$$$  ",
"        .%%$.;;;-%%%$$$##$###$$ ",
"        .%$..;;;-%%%$$##########",
"        ..-..;;;%%$$$$#####     ",
"        &.;..;;%$$$$$####       ",
"       &.&@;;;-$;;@$####$$      ",
"       ...==;;;;===@####$$$$    ",
"          =========@######$$$   ",
"          O@@=====@#########$   ",
"           OO@@@@@##.########$  ",
"            OOO$##..#####       ",
"           O@==@$====##         ",
"           @====@$@@@==#        ",
"           @====@$###@@=#       ",
"           O@==@@$####@=#       ",
"          o.O@@@$$&;&;;@##      ",
"         &&o#$$$$#;;;&;O##      ",
"         &&o.#.#$#&&&o&###      ",
"          o..## $%&&&&   #      ",
"             ##  %#&&.          ",
"             ##  %#             ",
"             ##   %#            ",
"             ##   %#            ",
"            &&&o ;;;*&          ",
"           &&ooo **&&&          ",
"           O&oo&;OO&&O.         ",
"         &&oXX+&&;*OOO.         ",
"      OOOXXX++++++*&OOO.        ",
"   OOOOXX++++++++++&OOO.        ",
"   .....................        "
};
